<svg version="1.1" xmlns="http://www.w3.org/2000/svg" viewBox="0 0 876.7945374869455 507.0841019240246" width="1753.589074973891" height="1014.1682038480492" filter="invert(93%) hue-rotate(180deg)">
  <!-- svg-source:excalidraw -->
  
  <defs>
    <style class="style-fonts">
      @font-face {
        font-family: "Virgil";
        src: url("https://excalidraw.com/Virgil.woff2");
      }
      @font-face {
        font-family: "Cascadia";
        src: url("https://excalidraw.com/Cascadia.woff2");
      }
      @font-face {
        font-family: "Assistant";
        src: url("https://excalidraw.com/Assistant-Regular.woff2");
      }
    </style>
    
  </defs>
  <rect x="0" y="0" width="876.7945374869455" height="507.0841019240246" fill="#ffffff"></rect><g transform="translate(223 10) rotate(0 67.71666717529297 12.5)"><text x="0" y="0" font-family="Virgil, Segoe UI Emoji" font-size="20px" fill="#1e1e1e" text-anchor="start" style="white-space: pre;" direction="ltr" dominant-baseline="text-before-edge">Exwallet.Root</text></g><g transform="translate(10 177) rotate(0 57.83333206176758 12.5)"><text x="0" y="0" font-family="Virgil, Segoe UI Emoji" font-size="20px" fill="#1e1e1e" text-anchor="start" style="white-space: pre;" direction="ltr" dominant-baseline="text-before-edge">TxnRegistry</text></g><g transform="translate(120 236) rotate(0 56.38333511352539 12.5)"><text x="0" y="0" font-family="Virgil, Segoe UI Emoji" font-size="20px" fill="#1e1e1e" text-anchor="start" style="white-space: pre;" direction="ltr" dominant-baseline="text-before-edge">UsrRegistry</text></g><g transform="translate(452 233) rotate(0 53.21666717529297 12.5)"><text x="0" y="0" font-family="Virgil, Segoe UI Emoji" font-size="20px" fill="#1e1e1e" text-anchor="start" style="white-space: pre;" direction="ltr" dominant-baseline="text-before-edge">Partitioner</text></g><g stroke-linecap="round"><g transform="translate(413.4799130548023 84.05718586611113) rotate(0 -140.73557449232365 42.435439734622946)"><path d="M1.01 0.05 C-20.42 7.82, -82.11 31.56, -129 45.83 C-175.89 60.1, -255.01 79.3, -280.34 85.67" stroke="#1e1e1e" stroke-width="1.5" fill="none" stroke-dasharray="1.5 7"></path></g><g transform="translate(413.4799130548023 84.05718586611113) rotate(0 -140.73557449232365 42.435439734622946)"><path d="M-255.46 68.9 C-262.06 72.73, -267.37 79.86, -280.34 85.67" stroke="#1e1e1e" stroke-width="1.5" fill="none" stroke-dasharray="1.5 5"></path></g><g transform="translate(413.4799130548023 84.05718586611113) rotate(0 -140.73557449232365 42.435439734622946)"><path d="M-250.5 88.81 C-258.27 87.43, -264.89 89.29, -280.34 85.67" stroke="#1e1e1e" stroke-width="1.5" fill="none" stroke-dasharray="1.5 5"></path></g></g><mask></mask><g transform="translate(342.6220844045911 325.0077749210907) rotate(0 98.5999984741211 12.5)"><text x="0" y="0" font-family="Virgil, Segoe UI Emoji" font-size="20px" fill="#1e1e1e" text-anchor="start" style="white-space: pre;" direction="ltr" dominant-baseline="text-before-edge">DynamicSupervisor[i]</text></g><g transform="translate(616 303) rotate(0 101.08333587646484 12.5)"><text x="0" y="0" font-family="Virgil, Segoe UI Emoji" font-size="20px" fill="#1e1e1e" text-anchor="start" style="white-space: pre;" direction="ltr" dominant-baseline="text-before-edge">DynamicSupervisor[n]</text></g><g stroke-linecap="round"><g transform="translate(549.8480073140197 263) rotate(0 44.963012269926026 18)"><path d="M-0.47 0.91 C14.3 7.17, 73.96 31.12, 89.23 36.78 M1.49 0.34 C16.59 6.33, 76.66 29.2, 91.57 35.07" stroke="#1971c2" stroke-width="1" fill="none"></path></g><g transform="translate(549.8480073140197 263) rotate(0 44.963012269926026 18)"><path d="M61.58 34.48 C73.65 33.63, 83.99 36.98, 91.57 35.07 M61.58 34.48 C67.84 34.08, 74.64 34.96, 91.57 35.07" stroke="#1971c2" stroke-width="1" fill="none"></path></g><g transform="translate(549.8480073140197 263) rotate(0 44.963012269926026 18)"><path d="M68.97 15.33 C78.32 21.2, 86.06 31.29, 91.57 35.07 M68.97 15.33 C73.68 18.82, 78.97 23.59, 91.57 35.07" stroke="#1971c2" stroke-width="1" fill="none"></path></g></g><mask></mask><g transform="translate(276.3468159110465 407.8818030559544) rotate(0 38.91666793823242 12.5)"><text x="0" y="0" font-family="Virgil, Segoe UI Emoji" font-size="20px" fill="#1e1e1e" text-anchor="start" style="white-space: pre;" direction="ltr" dominant-baseline="text-before-edge">User[a]</text></g><g transform="translate(441.64631799433585 410.5077749210907) rotate(0 35.53333282470703 12.5)"><text x="0" y="0" font-family="Virgil, Segoe UI Emoji" font-size="20px" fill="#1e1e1e" text-anchor="start" style="white-space: pre;" direction="ltr" dominant-baseline="text-before-edge">User[j]</text></g><g stroke-linecap="round"><g transform="translate(392.4399169960467 361.948676449068) rotate(0 -31.103475232104586 17.966563303443195)"><path d="M-0.23 0.59 C-10.64 6.73, -52.01 31.06, -62.27 37.13 M-1.81 -0.15 C-12.41 5.66, -53.16 29.74, -63.24 35.63" stroke="#1971c2" stroke-width="1" fill="none"></path></g><g transform="translate(392.4399169960467 361.948676449068) rotate(0 -31.103475232104586 17.966563303443195)"><path d="M-44.13 12.51 C-49.18 19.72, -54.24 27.9, -63.24 35.63 M-44.13 12.51 C-50.96 21.87, -59.31 30.59, -63.24 35.63" stroke="#1971c2" stroke-width="1" fill="none"></path></g><g transform="translate(392.4399169960467 361.948676449068) rotate(0 -31.103475232104586 17.966563303443195)"><path d="M-33.74 30.2 C-42.13 31.78, -50.49 34.32, -63.24 35.63 M-33.74 30.2 C-44.68 32.7, -57.05 34.57, -63.24 35.63" stroke="#1971c2" stroke-width="1" fill="none"></path></g></g><mask></mask><g stroke-linecap="round"><g transform="translate(442.9814918235402 361.0077749210907) rotate(0 15.135449073190898 22)"><path d="M0.84 0.44 C5.81 7.53, 24.73 35.78, 29.69 43.21 M-0.18 -0.38 C4.59 6.79, 23.4 37.07, 28.44 44.34" stroke="#1971c2" stroke-width="1" fill="none"></path></g><g transform="translate(442.9814918235402 361.0077749210907) rotate(0 15.135449073190898 22)"><path d="M7.09 28.31 C14.12 31.86, 18.31 38.11, 28.44 44.34 M7.09 28.31 C15.05 33.89, 24.17 41.22, 28.44 44.34" stroke="#1971c2" stroke-width="1" fill="none"></path></g><g transform="translate(442.9814918235402 361.0077749210907) rotate(0 15.135449073190898 22)"><path d="M22.39 18.33 C25.02 24.9, 24.75 34.06, 28.44 44.34 M22.39 18.33 C24.54 27.87, 27.76 39.05, 28.44 44.34" stroke="#1971c2" stroke-width="1" fill="none"></path></g></g><mask></mask><g transform="translate(614.0249996185303 389.75) rotate(0 37.900001525878906 12.5)"><text x="0" y="0" font-family="Virgil, Segoe UI Emoji" font-size="20px" fill="#1e1e1e" text-anchor="start" style="white-space: pre;" direction="ltr" dominant-baseline="text-before-edge">User[t]</text></g><g transform="translate(746.1083316802979 391.25) rotate(0 37.96666717529297 12.5)"><text x="0" y="0" font-family="Virgil, Segoe UI Emoji" font-size="20px" fill="#1e1e1e" text-anchor="start" style="white-space: pre;" direction="ltr" dominant-baseline="text-before-edge">User[z]</text></g><g stroke-linecap="round"><g transform="translate(706 335) rotate(0 -22 20.5)"><path d="M1.16 -0.98 C-6.18 6, -36.12 33.54, -43.6 40.74 M0.3 1.12 C-7.19 8.39, -36.89 35.58, -44.34 42.14" stroke="#1971c2" stroke-width="1" fill="none"></path></g><g transform="translate(706 335) rotate(0 -22 20.5)"><path d="M-30.27 15.64 C-36.85 25.26, -40.33 33.83, -44.34 42.14 M-30.27 15.64 C-36.03 26.4, -42.35 36.21, -44.34 42.14" stroke="#1971c2" stroke-width="1" fill="none"></path></g><g transform="translate(706 335) rotate(0 -22 20.5)"><path d="M-16.53 30.88 C-27.54 35.56, -35.59 39.05, -44.34 42.14 M-16.53 30.88 C-27.72 35.53, -39.52 39.28, -44.34 42.14" stroke="#1971c2" stroke-width="1" fill="none"></path></g></g><mask></mask><g stroke-linecap="round"><g transform="translate(728 337) rotate(0 24 23)"><path d="M-0.97 0.28 C7.12 7.75, 39.72 37.31, 47.94 44.95 M0.72 -0.62 C8.7 6.95, 39.12 37.92, 46.96 45.94" stroke="#1971c2" stroke-width="1" fill="none"></path></g><g transform="translate(728 337) rotate(0 24 23)"><path d="M19.89 33.01 C27.21 36.39, 31.83 40.31, 46.96 45.94 M19.89 33.01 C28.58 37.38, 37.06 40.51, 46.96 45.94" stroke="#1971c2" stroke-width="1" fill="none"></path></g><g transform="translate(728 337) rotate(0 24 23)"><path d="M34.53 18.63 C38.17 25.53, 39.1 33.08, 46.96 45.94 M34.53 18.63 C38.57 27.35, 42.53 34.92, 46.96 45.94" stroke="#1971c2" stroke-width="1" fill="none"></path></g></g><mask></mask><g stroke-linecap="round"><g transform="translate(304 57) rotate(0 74.33038959382691 82.5)"><path d="M1.1 -0.63 C10.39 15.56, 31.85 69.99, 56.42 97.61 C80.99 125.23, 133.18 153.71, 148.51 165.08 M0.21 1.66 C9.23 17.45, 30.6 68.34, 55.17 95.8 C79.75 123.27, 132.1 155.12, 147.67 166.45" stroke="#1971c2" stroke-width="1" fill="none"></path></g><g transform="translate(304 57) rotate(0 74.33038959382691 82.5)"><path d="M118.58 159.11 C127.95 160.5, 140.39 163.83, 147.67 166.45 M118.58 159.11 C127.84 160.38, 136.84 164.09, 147.67 166.45" stroke="#1971c2" stroke-width="1" fill="none"></path></g><g transform="translate(304 57) rotate(0 74.33038959382691 82.5)"><path d="M130.1 142.13 C135.44 149.69, 143.76 159.08, 147.67 166.45 M130.1 142.13 C135.79 148.7, 141.26 157.62, 147.67 166.45" stroke="#1971c2" stroke-width="1" fill="none"></path></g></g><mask></mask><g stroke-linecap="round"><g transform="translate(446.18835825692554 259.4915831355155) rotate(0 -13.860437988523415 27.69510996021944)"><path d="M-0.98 0.45 C-5.77 9.56, -23.98 45.65, -28.27 54.97 M0.7 -0.36 C-4.33 8.89, -24.89 47.14, -29.51 56.29" stroke="#1971c2" stroke-width="1" fill="none"></path></g><g transform="translate(446.18835825692554 259.4915831355155) rotate(0 -13.860437988523415 27.69510996021944)"><path d="M-25.52 26.56 C-26.04 35.69, -28.83 48.32, -29.51 56.29 M-25.52 26.56 C-27.04 38.73, -28.53 49.92, -29.51 56.29" stroke="#1971c2" stroke-width="1" fill="none"></path></g><g transform="translate(446.18835825692554 259.4915831355155) rotate(0 -13.860437988523415 27.69510996021944)"><path d="M-7.34 36.08 C-14.04 41.83, -23 51.24, -29.51 56.29 M-7.34 36.08 C-15.75 44.46, -24.2 52.01, -29.51 56.29" stroke="#1971c2" stroke-width="1" fill="none"></path></g></g><mask></mask><g stroke-linecap="round"><g transform="translate(350.0263732821734 317.25559895246386) rotate(0 -53.440325720417064 -24.26542565971903)"><path d="M1.12 0.83 C-16.67 -7.19, -89.79 -40.1, -107.78 -48.36 M0.25 0.22 C-17.07 -7.56, -87.58 -38.78, -105.55 -46.73" stroke="#1971c2" stroke-width="1" fill="none"></path></g><g transform="translate(350.0263732821734 317.25559895246386) rotate(0 -53.440325720417064 -24.26542565971903)"><path d="M-75.62 -44.7 C-80.56 -46.35, -87.99 -45.18, -105.55 -46.73 M-75.62 -44.7 C-85.1 -45.35, -92.86 -45.11, -105.55 -46.73" stroke="#1971c2" stroke-width="1" fill="none"></path></g><g transform="translate(350.0263732821734 317.25559895246386) rotate(0 -53.440325720417064 -24.26542565971903)"><path d="M-83.92 -25.93 C-87.07 -31.64, -92.74 -34.43, -105.55 -46.73 M-83.92 -25.93 C-90.96 -32.02, -96.33 -37.17, -105.55 -46.73" stroke="#1971c2" stroke-width="1" fill="none"></path></g></g><mask></mask><g stroke-linecap="round"><g transform="translate(254 51) rotate(0 -25.5 87.5)"><path d="M-0.86 -1.19 C-1.97 8.02, -3.26 41.87, -5.55 56.11 C-7.84 70.34, -7.03 64.31, -14.57 84.21 C-22.12 104.11, -44.67 160.51, -50.82 175.51 M0.89 0.8 C-0.46 10.15, -3.76 43.64, -6.43 57.69 C-9.1 71.75, -7.77 65.86, -15.12 85.12 C-22.46 104.37, -44.74 158.38, -50.48 173.21" stroke="#e03131" stroke-width="1" fill="none"></path></g><g transform="translate(254 51) rotate(0 -25.5 87.5)"><path d="M-49.53 143.23 C-51.67 155.22, -49.91 167.49, -50.48 173.21 M-49.53 143.23 C-50.13 149.56, -50.39 157.81, -50.48 173.21" stroke="#e03131" stroke-width="1" fill="none"></path></g><g transform="translate(254 51) rotate(0 -25.5 87.5)"><path d="M-30.48 150.86 C-40.16 159.71, -45.88 168.99, -50.48 173.21 M-30.48 150.86 C-35.55 155.48, -40.28 161.94, -50.48 173.21" stroke="#e03131" stroke-width="1" fill="none"></path></g></g><mask></mask><g stroke-linecap="round"><g transform="translate(185 279) rotate(0 51.89699132792123 62.44090152797719)"><path d="M0.1 -0.48 C10.74 7.19, 46.73 24.15, 63.87 45.02 C81.01 65.89, 96.3 111.6, 102.95 124.75 M-1.3 -1.78 C9.15 6.19, 45.07 25.27, 62.85 46.56 C80.64 67.86, 98.55 113, 105.4 126" stroke="#e03131" stroke-width="1" fill="none"></path></g><g transform="translate(185 279) rotate(0 51.89699132792123 62.44090152797719)"><path d="M84.14 104.83 C89.68 111.09, 97.02 116.38, 105.4 126 M84.14 104.83 C90.49 111.75, 96.27 116.93, 105.4 126" stroke="#e03131" stroke-width="1" fill="none"></path></g><g transform="translate(185 279) rotate(0 51.89699132792123 62.44090152797719)"><path d="M102.72 96.12 C102.49 105.06, 104.14 113.03, 105.4 126 M102.72 96.12 C103.69 105.4, 104.11 113.1, 105.4 126" stroke="#e03131" stroke-width="1" fill="none"></path></g></g><mask></mask><g stroke-linecap="round"><g transform="translate(265.3468159110465 418.7264214796447) rotate(0 -103.17340795552326 -102.86321073982236)"><path d="M0.35 0.85 C-18.69 -9.92, -79.64 -31.16, -114.17 -65.56 C-148.71 -99.96, -191.42 -182.29, -206.87 -205.55 M-0.93 0.25 C-20.11 -10.22, -80.53 -29.87, -115.03 -63.94 C-149.53 -98, -192.6 -180.23, -207.91 -204.14" stroke="#e03131" stroke-width="1" fill="none"></path></g><g transform="translate(265.3468159110465 418.7264214796447) rotate(0 -103.17340795552326 -102.86321073982236)"><path d="M-184.74 -185.08 C-190.19 -190.5, -198.35 -197.43, -207.91 -204.14 M-184.74 -185.08 C-191.49 -190.15, -199.34 -197.45, -207.91 -204.14" stroke="#e03131" stroke-width="1" fill="none"></path></g><g transform="translate(265.3468159110465 418.7264214796447) rotate(0 -103.17340795552326 -102.86321073982236)"><path d="M-202.42 -174.65 C-202.43 -183.28, -205.24 -193.37, -207.91 -204.14 M-202.42 -174.65 C-203.56 -183.09, -205.85 -193.66, -207.91 -204.14" stroke="#e03131" stroke-width="1" fill="none"></path></g></g><mask></mask><g transform="translate(423 62) rotate(0 49.150001525878906 12.5)"><text x="0" y="0" font-family="Virgil, Segoe UI Emoji" font-size="20px" fill="#1e1e1e" text-anchor="start" style="white-space: pre;" direction="ltr" dominant-baseline="text-before-edge">Supervisor</text></g><g stroke-linecap="round"><g transform="translate(499 99) rotate(0 16.040244622764362 61.5)"><path d="M-0.96 -0.67 C2.9 8.66, 16.66 34.28, 22.24 54.78 C27.81 75.28, 30.7 110.81, 32.49 122.34" stroke="#1e1e1e" stroke-width="1.5" fill="none" stroke-dasharray="1.5 7"></path></g><g transform="translate(499 99) rotate(0 16.040244622764362 61.5)"><path d="M18.86 95.61 C20.54 102.13, 26.03 108.42, 32.49 122.34" stroke="#1e1e1e" stroke-width="1.5" fill="none" stroke-dasharray="1.5 5"></path></g><g transform="translate(499 99) rotate(0 16.040244622764362 61.5)"><path d="M39.22 93.1 C36.31 100.02, 37.21 106.88, 32.49 122.34" stroke="#1e1e1e" stroke-width="1.5" fill="none" stroke-dasharray="1.5 5"></path></g></g><mask></mask><g stroke-linecap="round"><g transform="translate(365.1333312988281 21.42033423319677) rotate(0 49.93333435058594 17.789832883401616)"><path d="M-1.14 1.06 C10.31 4.46, 50.98 14.16, 67.78 20.03 C84.57 25.9, 94.41 33.57, 99.63 36.26" stroke="#1e1e1e" stroke-width="1.5" fill="none" stroke-dasharray="1.5 7"></path></g><g transform="translate(365.1333312988281 21.42033423319677) rotate(0 49.93333435058594 17.789832883401616)"><path d="M81.62 32.82 C87.27 35.15, 90.38 34.18, 99.63 36.26" stroke="#1e1e1e" stroke-width="1.5" fill="none" stroke-dasharray="1.5 5"></path></g><g transform="translate(365.1333312988281 21.42033423319677) rotate(0 49.93333435058594 17.789832883401616)"><path d="M88.05 22.05 C92.22 26.74, 93.89 28.18, 99.63 36.26" stroke="#1e1e1e" stroke-width="1.5" fill="none" stroke-dasharray="1.5 5"></path></g></g><mask></mask><g stroke-linecap="round"><g transform="translate(534 82) rotate(0 -114 199.5)"><path d="M-0.16 -1.18 C47.26 20.65, 241 64.88, 284.81 131.76 C328.61 198.63, 375.39 362.89, 262.69 400.08 C149.98 437.27, -262.24 398.92, -391.45 354.88 C-520.65 310.85, -492.19 172.37, -512.52 135.88" stroke="#1e1e1e" stroke-width="1.5" fill="none" stroke-dasharray="1.5 7"></path></g><g transform="translate(534 82) rotate(0 -114 199.5)"><path d="M-497.07 161.59 C-504.21 152.92, -507.64 144.4, -512.52 135.88" stroke="#1e1e1e" stroke-width="1.5" fill="none" stroke-dasharray="1.5 5"></path></g><g transform="translate(534 82) rotate(0 -114 199.5)"><path d="M-517.22 165.51 C-517.86 155.6, -514.77 145.81, -512.52 135.88" stroke="#1e1e1e" stroke-width="1.5" fill="none" stroke-dasharray="1.5 5"></path></g></g><mask></mask><g stroke-linecap="round"><g transform="translate(213 26.78125399479086) rotate(0 -70.5 69.10937300260457)"><path d="M0.35 0.47 C-14.32 11.22, -64.48 42.15, -87.87 65.16 C-111.27 88.18, -131.34 126.32, -139.99 138.56 M-0.92 -0.33 C-15.68 10.47, -65.01 43.36, -88.23 66.15 C-111.45 88.93, -131.17 124.1, -140.23 136.39" stroke="#2f9e44" stroke-width="1" fill="none"></path></g><g transform="translate(213 26.78125399479086) rotate(0 -70.5 69.10937300260457)"><path d="M-133.15 107.24 C-134.44 118.35, -139.22 127.38, -140.23 136.39 M-133.15 107.24 C-134.37 116.2, -137.16 126.58, -140.23 136.39" stroke="#2f9e44" stroke-width="1" fill="none"></path></g><g transform="translate(213 26.78125399479086) rotate(0 -70.5 69.10937300260457)"><path d="M-116.07 118.61 C-122.83 126.18, -133.01 131.6, -140.23 136.39 M-116.07 118.61 C-123.01 123.9, -131.4 130.54, -140.23 136.39" stroke="#2f9e44" stroke-width="1" fill="none"></path></g></g><mask></mask><g stroke-linecap="round"><g transform="translate(442.5149243448034 98.34740549307708) rotate(0 -105.96312877846091 61.62023736985759)"><path d="M-1.16 -0.06 C-15.11 7.83, -49.87 26.92, -84.85 47.38 C-119.83 67.84, -189.76 110.07, -211.03 122.7" stroke="#1e1e1e" stroke-width="1.5" fill="none" stroke-dasharray="1.5 7"></path></g><g transform="translate(442.5149243448034 98.34740549307708) rotate(0 -105.96312877846091 61.62023736985759)"><path d="M-192.11 99.42 C-196.1 103.53, -201.28 110.34, -211.03 122.7" stroke="#1e1e1e" stroke-width="1.5" fill="none" stroke-dasharray="1.5 5"></path></g><g transform="translate(442.5149243448034 98.34740549307708) rotate(0 -105.96312877846091 61.62023736985759)"><path d="M-181.57 117.03 C-187.74 117.41, -195.1 120.58, -211.03 122.7" stroke="#1e1e1e" stroke-width="1.5" fill="none" stroke-dasharray="1.5 5"></path></g></g><mask></mask></svg>